<?xml version="1.0" encoding="UTF-8" standalone="no"?>
<!-- Created with Inkscape (http://www.inkscape.org/) -->

<svg
   version="1.1"
   id="svg311"
   width="1760.3961"
   height="358.86081"
   viewBox="0 0 1760.3961 358.86081"
   xmlns="http://www.w3.org/2000/svg"
   xmlns:svg="http://www.w3.org/2000/svg">
  <defs
     id="defs315" />
  <g
     id="g317"
     transform="translate(-6.1198013,-16.641316)">
    <path style="fill:#111111"
       d="m 516.67418,373.70009 c -7.50715,-4.04817 -15.59473,-14.21526 -20.08552,-25.25 -3.89514,-9.57113 -6.02529,-19.61798 -9.73496,-45.91493 -1.98508,-14.07179 -3.79771,-25.78244 -4.02807,-26.02368 -0.23036,-0.24123 -2.44019,0.54345 -4.91075,1.74374 l -4.49192,2.18235 0.26386,32.25626 0.26386,32.25626 2.75,0.31642 c 1.574,0.18111 2.75,0.92947 2.75,1.75 0,1.17886 -2.57637,1.43358 -14.5,1.43358 -11.93801,0 -14.5,-0.25384 -14.5,-1.43664 0,-0.88988 1.23689,-1.5559 3.25,-1.75 l 3.25,-0.31336 v -66.5 -66.5 l -3.75,-0.31037 c -2.45306,-0.20302 -3.75,-0.80826 -3.75,-1.75 0,-2.11098 37.47592,-2.08437 44.5685,0.0317 5.9913,1.78745 12.19491,6.71822 14.05573,11.17181 2.05149,4.9099 1.91918,34.12026 -0.17728,39.13903 -1.90975,4.5718 -5.73877,8.6819 -9.56443,10.26654 -1.58539,0.65664 -2.88252,1.30129 -2.88252,1.43251 0,2.79556 3.46417,33.59836 4.55686,40.51878 3.34696,21.19759 9.91341,40.66542 18.13159,53.75546 2.92135,4.65317 5.31155,8.63677 5.31155,8.85243 0,0.99389 -3.84345,0.22373 -6.7765,-1.35789 z m -37.45964,-99.25 c 2.27674,-1.1 4.63361,-2 5.23749,-2 2.74743,0 6.89,-3.24585 8.55858,-6.70595 1.4618,-3.0313 1.91489,-6.95588 2.25375,-19.52157 0.58362,-21.64179 -0.21952,-28.33216 -3.83512,-31.94777 -2.60254,-2.60254 -3.42065,-2.82471 -10.40164,-2.82471 h -7.57692 v 32.5 c 0,17.875 0.36548,32.5 0.81217,32.5 0.44669,0 2.67496,-0.9 4.95169,-2 z m 216.24328,80.40702 c -12.0719,-5.23505 -13.53667,-12.53183 -13.43102,-66.90702 0.0614,-31.59865 0.40333,-39.30101 2.79685,-63 1.4998,-14.85 3.31961,-29.925 4.04404,-33.5 1.56645,-7.73041 0.64478,-25.32542 -1.93816,-37 -2.52704,-11.42191 -8.24211,-22.42074 -16.0089,-30.80959 -3.66147,-3.95472 -7.24625,-7.19041 -7.96617,-7.19041 -0.71992,0 -6.41529,4.07716 -12.65636,9.06036 -25.52773,20.38266 -42.67682,24.08021 -63.84742,13.76625 -7.2904,-3.55175 -10.06673,-5.71962 -19.50962,-15.23383 C 553.70482,110.70664 549.66767,103.65581 539.82177,76.679399 531.461,53.772012 527.4525,45.761261 520.97971,39.024668 l -5.25353,-5.467648 4.11225,-1.657169 c 24.37233,-9.821639 59.21872,-15.936371 86.61225,-15.198436 25.99469,0.700253 37.87783,4.501642 53.61605,17.151649 20.18985,16.228118 30.38395,32.576184 30.38395,48.7261 0,3.707401 -0.46401,7.96117 -1.03114,9.45282 l -1.03113,2.712091 -8.21887,-7.952792 C 651.39218,58.945535 621.54872,46.005053 581.45068,43.985599 l -11.5,-0.579173 8.47066,2.578209 c 22.79086,6.936834 46.02205,17.851479 65.14937,30.608941 20.87385,13.922356 42.14942,36.949504 51.03287,55.234334 1.2351,2.5422 2.49346,4.594 2.79637,4.55957 0.3029,-0.0344 2.12573,-3.28255 4.05073,-7.21803 4.45681,-9.11151 10.42869,-17.22961 18.59074,-25.272 l 6.44892,-6.354384 -4.01008,-5.296487 c -14.46455,-19.1047 -5.71293,-40.212421 20.97042,-50.577808 12.62525,-4.904391 17.65424,-5.704039 35.5,-5.64477 15.09949,0.05015 18.11795,0.352757 27,2.706838 20.28557,5.376443 41.66787,18.7178 54.57548,34.052032 l 6.00924,7.138981 -2.79236,0.912428 c -7.10648,2.322105 -13.32484,8.146842 -26.81308,25.11581 -15.45623,19.44482 -25.37616,27.17861 -41.24169,32.15294 -11.30556,3.54463 -22.90389,3.11077 -31.5848,-1.18151 -7.24619,-3.58288 -19.65279,-16.31989 -19.65279,-20.17618 0,-1.75659 2.01827,-4.52042 6.77348,-9.27563 5.68283,-5.68282 8.78244,-7.753129 19.25,-12.857547 16.38798,-7.991455 47.39523,-17.162071 58.02758,-17.162071 1.557,0 3.10902,-0.45 3.44894,-1 0.84643,-1.369552 -21.48138,-1.300993 -33,0.101329 -30.8351,3.753985 -58.17274,16.885714 -73.84165,35.470079 -14.59193,17.307 -20.53736,39.58966 -17.32415,64.92859 0.88011,6.94039 1.45146,22.2562 1.54814,41.5 0.22818,45.41351 2.61715,74.5808 8.72152,106.48228 2.93708,15.34916 2.37653,20.20893 -2.9225,25.3374 -6.01677,5.8231 -13.04546,7.46194 -19.67422,4.58734 z M 34.198646,348.08947 C 23.229018,343.98145 14.009254,330.40982 8.681634,310.52805 6.4154727,302.07112 6.1156348,299.01889 6.1198445,284.45009 6.130636,247.10357 17.389119,218.11525 34.889472,210.37411 c 5.241101,-2.31836 15.630918,-3.62531 20.034267,-2.52014 4.144544,1.04022 11.073122,8.11371 13.520881,13.80368 2.804028,6.51814 3.789659,18.92204 2.008951,25.2821 -0.768791,2.74586 -2.448664,5.54909 -4.217075,7.03711 -5.328902,4.48397 -5.683003,3.83169 -5.578916,-10.27677 0.113964,-15.44718 -2.227062,-24.47016 -7.792885,-30.03598 -2.916772,-2.91677 -3.828322,-3.28982 -6.647173,-2.72032 -7.335559,1.48201 -12.183996,7.6036 -16.637475,21.0063 -5.594868,16.8377 -6.577593,24.50043 -6.604738,51.5 -0.02005,19.94197 0.311719,26.06009 1.7833,32.88569 3.598368,16.69022 6.226046,21.81559 12.940637,25.24112 4.515048,2.30341 9.246304,2.08941 13.357202,-0.60416 l 2.394229,-1.56876 v -29.47694 -29.47695 h -7 c -6.333333,0 -7,-0.19048 -7,-2 0,-1.92157 0.666667,-2 17,-2 16.129173,0 17,0.0989 17,1.93045 0,1.2406 -0.804043,2.04464 -2.25,2.25 l -2.25,0.31955 -0.512066,26.5 c -0.281636,14.575 -0.910683,27.4 -1.397882,28.5 -1.905855,4.30305 -5.891388,8.61308 -9.816085,10.61531 -5.307682,2.70778 -17.678643,3.5266 -23.025998,1.52407 z M 1300.496,348.41152 c -10.7909,-2.2456 -22.403,-10.69065 -27.4498,-19.96327 -3.3942,-6.23626 -5.2765,-12.98932 -6.182,-22.17946 -0.6226,-6.31858 -0.8458,-6.8187 -3.0427,-6.8187 -1.4407,0 -2.3708,-0.58847 -2.3708,-1.5 0,-1.23333 1.7778,-1.5 10,-1.5 9.9986,0 11.9737,0.7845 8.5343,3.38976 -2.1009,1.59137 -3.3934,11.57794 -2.3553,18.19802 1.2199,7.77925 4.8189,14.32589 10.8628,19.75993 10.3408,9.29727 24.92,10.13756 30.8662,1.779 4.8309,-6.79083 6.3981,-20.6921 3.5608,-31.58516 -2.7915,-10.71717 -6.9626,-16.93626 -18.3792,-27.40332 -14.6706,-13.45033 -18.5728,-17.77151 -21.7776,-24.11599 -2.5468,-5.04182 -2.7904,-6.48104 -2.8007,-16.54327 -0.011,-10.48575 0.151,-11.35065 3.3298,-17.80777 6.1117,-12.41457 14.3359,-18.10516 26.1589,-18.10004 15.1385,0.007 23.5215,10.50746 24.691,30.92884 0.5182,9.04974 -0.6785,15.24379 -2.7034,13.99233 -2.184,-1.34981 -5.1109,-8.9118 -6.9091,-17.85082 -2.3089,-11.47763 -3.9718,-14.82729 -9.2644,-18.66123 -7.9988,-5.79429 -15.3582,-3.11674 -19.7976,7.20293 -1.8663,4.33833 -2.1748,6.5213 -1.8107,12.8114 0.6591,11.38497 3.3651,15.64502 21.4525,33.77276 11.9981,12.02478 15.8944,16.60996 18.3455,21.58883 10.1354,20.58793 3.0194,51.37711 -13.5828,58.76982 -5.0696,2.25738 -13.5072,3.05665 -19.3757,1.83541 z M 223.45068,346.95009 c 0,-0.83864 0.89127,-1.5 2.02144,-1.5 2.76246,0 3.21192,-1.37384 8.506,-26 2.54212,-11.825 4.86219,-22.5125 5.15571,-23.75 0.74995,-3.16186 -1.48075,-2.90364 -6.53311,0.75627 -3.07836,2.22995 -4.15004,2.61162 -4.15004,1.47798 0,-1.56498 8.40318,-7.48425 10.62488,-7.48425 0.70087,0 1.73192,-2.48241 2.38822,-5.75 0.63519,-3.1625 4.3097,-20.05145 8.16559,-37.531 6.74109,-30.55877 6.94631,-31.87928 5.33611,-34.33676 -0.92103,-1.40567 -1.46247,-2.7679 -1.2032,-3.02717 0.83317,-0.83318 19.90319,-0.54164 20.72299,0.3168 0.43496,0.45547 5.67509,30.75313 11.64472,67.32813 10.24108,62.74541 10.97998,66.55573 13.08729,67.48713 1.22837,0.54292 2.2334,1.55542 2.2334,2.25 0,0.9524 -3.196,1.26287 -13,1.26287 -10.88889,0 -13,-0.24359 -13,-1.5 0,-0.825 0.87344,-1.5 1.94098,-1.5 1.06754,0 2.20025,-0.4195 2.51713,-0.93222 0.31688,-0.51272 -0.82279,-9.85022 -2.53259,-20.75 l -3.10874,-19.81778 -3.65839,-3.37981 c -5.35507,-4.9473 -13.41727,-8.38823 -19.94941,-8.51435 l -5.48149,-0.10584 -5.73519,26 c -3.15436,14.3 -5.54148,26.3375 -5.30473,26.75 0.23676,0.4125 1.30391,0.75 2.37145,0.75 1.06754,0 1.94098,0.675 1.94098,1.5 0,1.2 -1.5,1.5 -7.5,1.5 -6,0 -7.5,-0.3 -7.5,-1.5 z m 48,-61.3227 c 0,-2.94355 -4.04137,-34.81028 -6.43751,-50.76069 -0.7614,-5.06839 -1.96367,-10.27306 -2.67172,-11.56594 -1.1938,-2.17985 -1.45382,-1.6603 -3.57811,7.14933 -2.38435,9.88812 -12.31266,55.21203 -12.31266,56.20876 0,0.31346 3.7125,0.34528 8.25,0.0707 4.5375,-0.27455 9.825,-0.0403 11.75,0.52048 5.02679,1.46447 5,1.47317 5,-1.62266 z m 574,61.38307 c 0,-0.94174 1.29694,-1.54698 3.75,-1.75 l 3.75,-0.31037 v -66.5 -66.5 l -3.75,-0.31037 c -2.45306,-0.20302 -3.75,-0.80826 -3.75,-1.75 0,-1.21593 4.04009,-1.43963 26,-1.43963 h 26 v 17.5 17.5 h -2.29792 c -2.14549,0 -2.37446,-0.60637 -3.45176,-9.14126 -1.26049,-9.98616 -4.67473,-18.43542 -8.37199,-20.71824 -1.21102,-0.74772 -4.82906,-1.59772 -8.04009,-1.88888 l -5.83824,-0.5294 v 31.13889 31.13889 h 5.39301 c 4.00732,0 5.54981,0.4086 6.00325,1.59024 1.02295,2.66577 -0.27646,3.40976 -5.95528,3.40976 h -5.44098 v 33.64246 33.64245 l 5.8546,-0.61192 c 3.22003,-0.33656 7.06191,-1.07095 8.5375,-1.63197 3.9758,-1.51159 8.16997,-11.12273 9.68191,-22.18651 1.12213,-8.2113 1.39811,-8.92969 3.32485,-8.65455 2.03272,0.29027 2.11003,0.878 2.37421,18.05004 l 0.27308,17.75 h -27.02308 c -22.85024,0 -27.02307,-0.2223 -27.02307,-1.43963 z m 206.18042,-0.25885 c 0.2309,-1.19888 1.3555,-1.71363 3.8234,-1.75 l 3.4962,-0.0515 0.2574,-63.80188 c 0.1658,-41.08741 -0.098,-64.4665 -0.7417,-65.66871 -0.5495,-1.02677 -2.3528,-2.16418 -4.0074,-2.52758 -2.0708,-0.45485 -3.0083,-1.25928 -3.0083,-2.58131 0,-1.75667 0.7952,-1.92054 9.3198,-1.92054 h 9.3199 l 13.8659,43.25 c 7.6263,23.7875 14.2324,43.6775 14.6802,44.2 1.3453,1.56967 1.0086,-76.92923 -0.3427,-79.89494 -0.6452,-1.41621 -2.6353,-3.07366 -4.5,-3.74794 -1.8387,-0.6649 -3.3431,-1.7935 -3.3431,-2.50801 0,-0.99017 2.7348,-1.29911 11.5,-1.29911 9.5556,0 11.5,0.25362 11.5,1.5 0,0.91273 -0.9308,1.5 -2.3776,1.5 -5.2194,0 -5.085,-1.67031 -5.6224,69.90319 l -0.5,66.59681 -2.1868,0.31127 c -1.4162,0.20158 -2.7114,-0.50321 -3.6754,-2 -0.8187,-1.2712 -8.3008,-23.23627 -16.6268,-48.81127 -8.326,-25.575 -15.3014,-46.95 -15.5008,-47.5 -0.1995,-0.55 -0.2834,20.6 -0.1864,47 l 0.1762,48 3.25,0.31336 c 2.0131,0.1941 3.25,0.86012 3.25,1.75 0,1.16236 -2.1141,1.43664 -11.0733,1.43664 -9.8798,0 -11.0381,-0.18307 -10.7463,-1.69848 z m 457.6562,0.18872 c -6.5342,-2.1021 -13.1636,-8.76038 -14.667,-14.73091 -0.826,-3.28056 -1.1696,-21.69863 -1.1696,-62.70215 v -58.05718 h -3 c -2,0 -3,-0.5 -3,-1.5 0,-1.26437 2.2778,-1.5 14.5,-1.5 11.952,0 14.5,0.25298 14.5,1.43963 0,0.94174 -1.2969,1.54698 -3.75,1.75 l -3.75,0.31037 -0.2574,63.22589 -0.2575,63.22588 2.7575,3.08586 c 3.5672,3.99207 9.0779,4.847 16.1347,2.50312 9.8269,-3.26397 9.1227,2.10977 9.1227,-69.61524 v -62.80478 l -3.75,-0.31036 c -2.0625,-0.17071 -3.6391,-0.76037 -3.5035,-1.31037 0.1424,-0.57748 5.3182,-1.11863 12.25,-1.28078 10.2327,-0.23936 12.0035,-0.055 12.0035,1.25 0,1.11924 -1.0754,1.53078 -4,1.53078 h -4 v 60.03212 c 0,65.26634 0.1021,64.01055 -5.6345,69.32982 -7.0196,6.50887 -20.7675,9.2686 -30.5289,6.1283 z m 195.3438,-0.18872 c 0.2309,-1.19888 1.3555,-1.71363 3.8234,-1.75 l 3.4962,-0.0515 0.2574,-64.38863 c 0.1793,-44.86287 -0.069,-64.78196 -0.8191,-65.68572 -0.5921,-0.7134 -2.3954,-1.58677 -4.0074,-1.94083 -2.0004,-0.43935 -2.9309,-1.25349 -2.9309,-2.56428 0,-1.75851 0.7969,-1.92054 9.4457,-1.92054 h 9.4457 l 8.1341,25.25 c 4.4738,13.8875 10.644,33.125 13.7116,42.75 3.0675,9.625 5.9566,17.9275 6.4201,18.45 0.4636,0.5225 0.8428,-16.81487 0.8428,-38.52749 0,-42.81094 -0.018,-42.95728 -5.4767,-44.3273 -1.3878,-0.34832 -2.5233,-1.31448 -2.5233,-2.14701 0,-1.27703 1.7205,-1.46949 11.004,-1.23095 10.7711,0.27676 14.016,1.46492 8.2281,3.01282 -1.5014,0.40153 -3.2928,1.50004 -3.9809,2.44113 -0.9716,1.32867 -1.2512,16.42495 -1.2512,67.55131 0,60.03348 -0.1443,65.89563 -1.6359,66.46802 -0.8998,0.34527 -2.3623,0.18239 -3.25,-0.36196 -1.8037,-1.10598 -2.0417,-1.77857 -20.6393,-58.32857 l -13.3192,-40.5 0.1722,48 0.1722,48 3.75,0.31037 c 2.4531,0.20302 3.75,0.80826 3.75,1.75 0,1.16991 -2.1683,1.43963 -11.5733,1.43963 -10.3502,0 -11.5388,-0.1795 -11.2463,-1.69848 z"
       id="path441" />
  </g>
</svg>
